<svg width="32" height="32" viewBox="0 0 32 32" fill="none" xmlns="http://www.w3.org/2000/svg">
<path fill-rule="evenodd" clip-rule="evenodd" d="M9.82293 10.3101C10.3749 10.3101 10.8229 10.7581 10.8229 11.3101C10.8229 11.8621 10.3749 12.3101 9.82293 12.3101H8.56827C6.41627 12.3101 4.66693 14.0581 4.66693 16.2088V22.7221C4.66693 24.8808 6.4216 26.6355 8.58027 26.6355H23.4336C25.5829 26.6355 27.3336 24.8848 27.3336 22.7355V16.2235C27.3336 14.0648 25.5776 12.3101 23.4216 12.3101H22.1789C21.6269 12.3101 21.1789 11.8621 21.1789 11.3101C21.1789 10.7581 21.6269 10.3101 22.1789 10.3101H23.4216C26.6816 10.3101 29.3336 12.9635 29.3336 16.2235V22.7355C29.3336 25.9888 26.6856 28.6355 23.4336 28.6355H8.58027C5.32027 28.6355 2.66693 25.9835 2.66693 22.7221V16.2088C2.66693 12.9555 5.3136 10.3101 8.56827 10.3101H9.82293ZM16.0013 4.00012C16.5533 4.00012 17.0013 4.44812 17.0013 5.00012L17.0003 18.6348L19.1813 16.4455C19.5707 16.0535 20.2027 16.0535 20.5947 16.4428C20.9853 16.8321 20.9867 17.4655 20.5973 17.8575L16.7183 21.7517C16.6804 21.7906 16.6394 21.8265 16.5957 21.8589L16.7093 21.7601C16.6664 21.8037 16.6198 21.8428 16.5703 21.8772C16.54 21.8981 16.5093 21.917 16.4775 21.9342C16.4622 21.9426 16.4462 21.9507 16.4299 21.9584C16.4008 21.9723 16.3709 21.9848 16.3404 21.9958C16.3251 22.0012 16.3098 22.0063 16.2944 22.011C16.2568 22.0226 16.2182 22.032 16.1788 22.0391C16.1699 22.0405 16.1618 22.0419 16.1537 22.0431C16.1219 22.0481 16.0887 22.0516 16.0551 22.0534C16.037 22.0543 16.0192 22.0548 16.0013 22.0548L15.9483 22.0508L15.8657 22.0457C15.8598 22.0449 15.8539 22.044 15.8481 22.0431L16.0013 22.0548C15.9418 22.0548 15.8826 22.0495 15.8247 22.0391C15.7846 22.032 15.746 22.0227 15.7085 22.0112C15.6934 22.0064 15.6787 22.0015 15.6641 21.9963C15.6334 21.9854 15.6032 21.9729 15.5737 21.9589C15.5558 21.9504 15.538 21.9413 15.5205 21.9317C15.4958 21.9181 15.4721 21.9037 15.449 21.8884C15.4332 21.878 15.4174 21.8668 15.4019 21.8551C15.3638 21.8265 15.3279 21.7953 15.2943 21.7618L15.2933 21.7601L11.4053 17.8575C11.016 17.4655 11.0173 16.8321 11.408 16.4428C11.8 16.0535 12.432 16.0535 12.8213 16.4455L15.0003 18.6348L15.0013 5.00012C15.0013 4.44812 15.4493 4.00012 16.0013 4.00012Z" fill="white"/>
</svg>
