<svg width="33" height="33" viewBox="0 0 33 33" fill="none" xmlns="http://www.w3.org/2000/svg">
<path fill-rule="evenodd" clip-rule="evenodd" d="M16.6499 3.28583C23.8099 3.28583 29.6339 9.10983 29.6339 16.2698C29.6339 19.6479 28.3375 22.7289 26.2161 25.0412L30.3904 29.2068C30.7811 29.5974 30.7824 30.2294 30.3917 30.6201C30.1971 30.8174 29.9397 30.9148 29.6837 30.9148C29.4291 30.9148 29.1731 30.8174 28.9771 30.6228L24.7523 26.4098C22.5299 28.1896 19.7121 29.2552 16.6499 29.2552C9.48985 29.2552 3.66452 23.4298 3.66452 16.2698C3.66452 9.10983 9.48985 3.28583 16.6499 3.28583ZM16.6499 5.28583C10.5925 5.28583 5.66452 10.2125 5.66452 16.2698C5.66452 22.3272 10.5925 27.2552 16.6499 27.2552C22.7059 27.2552 27.6339 22.3272 27.6339 16.2698C27.6339 10.2125 22.7059 5.28583 16.6499 5.28583Z" fill="white"/>
</svg>
